<svg width="24" height="27" viewBox="0 0 24 27" fill="none" xmlns="http://www.w3.org/2000/svg">
<path d="M12 16.2C11.6222 16.2 11.3058 16.0704 11.0507 15.8112C10.7956 15.552 10.6676 15.2316 10.6667 14.85C10.6658 14.4684 10.7938 14.148 11.0507 13.8888C11.3076 13.6296 11.624 13.5 12 13.5C12.376 13.5 12.6929 13.6296 12.9507 13.8888C13.2084 14.148 13.336 14.4684 13.3333 14.85C13.3307 15.2316 13.2027 15.5524 12.9493 15.8125C12.696 16.0726 12.3796 16.2018 12 16.2ZM6.66667 16.2C6.28889 16.2 5.97244 16.0704 5.71733 15.8112C5.46222 15.552 5.33422 15.2316 5.33333 14.85C5.33244 14.4684 5.46044 14.148 5.71733 13.8888C5.97422 13.6296 6.29067 13.5 6.66667 13.5C7.04267 13.5 7.35956 13.6296 7.61733 13.8888C7.87511 14.148 8.00267 14.4684 8 14.85C7.99733 15.2316 7.86933 15.5524 7.616 15.8125C7.36267 16.0726 7.04622 16.2018 6.66667 16.2ZM17.3333 16.2C16.9556 16.2 16.6391 16.0704 16.384 15.8112C16.1289 15.552 16.0009 15.2316 16 14.85C15.9991 14.4684 16.1271 14.148 16.384 13.8888C16.6409 13.6296 16.9573 13.5 17.3333 13.5C17.7093 13.5 18.0262 13.6296 18.284 13.8888C18.5418 14.148 18.6693 14.4684 18.6667 14.85C18.664 15.2316 18.536 15.5524 18.2827 15.8125C18.0293 16.0726 17.7129 16.2018 17.3333 16.2ZM12 21.6C11.6222 21.6 11.3058 21.4704 11.0507 21.2112C10.7956 20.952 10.6676 20.6316 10.6667 20.25C10.6658 19.8684 10.7938 19.548 11.0507 19.2888C11.3076 19.0296 11.624 18.9 12 18.9C12.376 18.9 12.6929 19.0296 12.9507 19.2888C13.2084 19.548 13.336 19.8684 13.3333 20.25C13.3307 20.6316 13.2027 20.9524 12.9493 21.2125C12.696 21.4726 12.3796 21.6018 12 21.6ZM6.66667 21.6C6.28889 21.6 5.97244 21.4704 5.71733 21.2112C5.46222 20.952 5.33422 20.6316 5.33333 20.25C5.33244 19.8684 5.46044 19.548 5.71733 19.2888C5.97422 19.0296 6.29067 18.9 6.66667 18.9C7.04267 18.9 7.35956 19.0296 7.61733 19.2888C7.87511 19.548 8.00267 19.8684 8 20.25C7.99733 20.6316 7.86933 20.9524 7.616 21.2125C7.36267 21.4726 7.04622 21.6018 6.66667 21.6ZM17.3333 21.6C16.9556 21.6 16.6391 21.4704 16.384 21.2112C16.1289 20.952 16.0009 20.6316 16 20.25C15.9991 19.8684 16.1271 19.548 16.384 19.2888C16.6409 19.0296 16.9573 18.9 17.3333 18.9C17.7093 18.9 18.0262 19.0296 18.284 19.2888C18.5418 19.548 18.6693 19.8684 18.6667 20.25C18.664 20.6316 18.536 20.9524 18.2827 21.2125C18.0293 21.4726 17.7129 21.6018 17.3333 21.6ZM2.66667 27C1.93333 27 1.30578 26.7358 0.784 26.2075C0.262222 25.6792 0.000888889 25.0434 0 24.3V5.4C0 4.6575 0.261333 4.0221 0.784 3.4938C1.30667 2.9655 1.93422 2.7009 2.66667 2.7H4V0H6.66667V2.7H17.3333V0H20V2.7H21.3333C22.0667 2.7 22.6947 2.9646 23.2173 3.4938C23.74 4.023 24.0009 4.6584 24 5.4V24.3C24 25.0425 23.7391 25.6783 23.2173 26.2075C22.6956 26.7367 22.0676 27.0009 21.3333 27H2.66667ZM2.66667 24.3H21.3333V10.8H2.66667V24.3Z" fill="white"/>
</svg>
