<svg width="25" height="24" viewBox="0 0 25 24" fill="none" xmlns="http://www.w3.org/2000/svg">
<path fill-rule="evenodd" clip-rule="evenodd" d="M5.9608 8.12308C5.97465 8.82369 5.59342 9.77077 5.09773 10.2655C4.63776 10.7259 4.37939 11.3501 4.37939 12.0009C4.37939 12.6517 4.63776 13.2759 5.09773 13.7363C5.58696 14.2237 5.94696 15.0692 5.9608 15.7597C5.97373 16.3708 6.2128 16.9782 6.67896 17.4434C7.10903 17.8743 7.68436 18.1294 8.2925 18.1588C9.02265 18.1957 9.97896 18.6203 10.4959 19.1372C10.9562 19.5969 11.5802 19.8551 12.2308 19.8551C12.8814 19.8551 13.5054 19.5969 13.9657 19.1372C14.4826 18.6203 15.439 18.1957 16.1691 18.1588C16.7772 18.1294 17.3526 17.8743 17.7827 17.4434C18.231 16.9956 18.4881 16.3914 18.4999 15.7578C18.5137 15.0692 18.8691 14.2292 19.3574 13.7418C19.8191 13.2816 20.0791 12.6568 20.0801 12.0048C20.0812 11.3529 19.8232 10.7273 19.363 10.2655C18.8682 9.77169 18.486 8.82369 18.5008 8.124C18.5078 7.79364 18.4477 7.4653 18.3243 7.1588C18.2008 6.85229 18.0166 6.57396 17.7827 6.34061C17.5402 6.09751 17.2493 5.90818 16.9288 5.78492C16.6083 5.66167 16.2655 5.60726 15.9226 5.62523C15.2645 5.65846 14.4319 5.33908 13.9657 4.872C13.5053 4.41203 12.8811 4.15367 12.2303 4.15367C11.5795 4.15367 10.9554 4.41203 10.495 4.872C10.0297 5.33815 9.19711 5.65846 8.53803 5.62523C8.19531 5.60739 7.85267 5.66186 7.53238 5.78512C7.21209 5.90837 6.92131 6.09763 6.67896 6.34061C6.44512 6.57385 6.26094 6.85203 6.13751 7.15837C6.01409 7.46471 5.95398 7.79288 5.9608 8.12308ZM15.0328 8.88554C15.1388 8.94437 15.2322 9.02351 15.3077 9.11845C15.3831 9.21339 15.4391 9.32226 15.4724 9.43884C15.5058 9.55542 15.5158 9.67743 15.502 9.79789C15.4882 9.91836 15.4508 10.0349 15.3919 10.1409L12.8368 14.7397C12.7706 14.8649 12.6765 14.9733 12.5617 15.0563C12.3949 15.177 12.1926 15.2384 11.9869 15.2309C11.7812 15.2234 11.5839 15.1473 11.4263 15.0148L8.87957 12.9775C8.7849 12.9018 8.70608 12.8081 8.6476 12.7019C8.58913 12.5957 8.55215 12.479 8.53878 12.3584C8.52541 12.2379 8.5359 12.116 8.56967 11.9995C8.60344 11.883 8.65981 11.7744 8.73557 11.6797C8.81133 11.585 8.905 11.5062 9.01123 11.4477C9.11745 11.3892 9.23416 11.3523 9.35467 11.3389C9.47519 11.3255 9.59716 11.336 9.71362 11.3698C9.83008 11.4036 9.93875 11.4599 10.0334 11.5357L11.7439 12.9046L13.7774 9.24369C13.8363 9.13774 13.9155 9.04443 14.0105 8.96909C14.1055 8.89375 14.2144 8.83786 14.3309 8.8046C14.4475 8.77134 14.5695 8.76137 14.6899 8.77526C14.8103 8.78915 14.9269 8.82662 15.0328 8.88554Z" fill="black"/>
<path fill-rule="evenodd" clip-rule="evenodd" d="M12.2258 22.1538C17.8335 22.1538 22.3797 17.6077 22.3797 12C22.3797 6.39231 17.8335 1.84615 12.2258 1.84615C6.61814 1.84615 2.07198 6.39231 2.07198 12C2.07198 17.6077 6.61814 22.1538 12.2258 22.1538ZM12.2258 24C18.8535 24 24.2258 18.6277 24.2258 12C24.2258 5.37231 18.8535 0 12.2258 0C5.59814 0 0.22583 5.37231 0.22583 12C0.22583 18.6277 5.59814 24 12.2258 24Z" fill="black"/>
</svg>
