<svg width="25" height="24" viewBox="0 0 25 24" fill="none" xmlns="http://www.w3.org/2000/svg">
<path fill-rule="evenodd" clip-rule="evenodd" d="M4.08147 6.96C4.09947 7.8708 3.60387 9.102 2.95947 9.7452C2.36151 10.3437 2.02563 11.1552 2.02563 12.0012C2.02563 12.8472 2.36151 13.6587 2.95947 14.2572C3.59547 14.8908 4.06347 15.99 4.08147 16.8876C4.09827 17.682 4.40907 18.4716 5.01507 19.0764C5.57416 19.6366 6.32209 19.9682 7.11266 20.0064C8.06186 20.0544 9.30507 20.6064 9.97707 21.2784C10.5755 21.876 11.3867 22.2116 12.2325 22.2116C13.0782 22.2116 13.8894 21.876 14.4879 21.2784C15.1599 20.6064 16.4031 20.0544 17.3523 20.0064C18.1428 19.9682 18.8908 19.6366 19.4499 19.0764C20.0327 18.4943 20.367 17.7088 20.3823 16.8852C20.4003 15.99 20.8623 14.898 21.4971 14.2644C22.0973 13.6661 22.4353 12.8538 22.4366 12.0063C22.438 11.1588 22.1026 10.3454 21.5043 9.7452C20.8611 9.1032 20.3643 7.8708 20.3835 6.9612C20.3925 6.53174 20.3144 6.1049 20.154 5.70644C19.9935 5.30797 19.754 4.94615 19.4499 4.6428C19.1347 4.32677 18.7565 4.08063 18.3399 3.9204C17.9233 3.76017 17.4776 3.68944 17.0319 3.7128C16.1751 3.756 15.0939 3.3408 14.4879 2.7336C13.8893 2.13565 13.0779 1.79977 12.2319 1.79977C11.3858 1.79977 10.5744 2.13565 9.97587 2.7336C9.37107 3.3396 8.28867 3.756 7.43187 3.7128C6.98633 3.68961 6.54089 3.76043 6.12451 3.92065C5.70813 4.08088 5.33013 4.32692 5.01507 4.6428C4.71108 4.94601 4.47164 5.30764 4.31119 5.70588C4.15074 6.10413 4.07259 6.53074 4.08147 6.96ZM15.8751 7.9512C16.0129 8.02768 16.1343 8.13057 16.2324 8.25399C16.3304 8.37741 16.4032 8.51894 16.4466 8.67049C16.4899 8.82205 16.503 8.98066 16.485 9.13726C16.4671 9.29387 16.4184 9.4454 16.3419 9.5832L13.0203 15.5616C12.9342 15.7244 12.8119 15.8653 12.6627 15.9732C12.4458 16.1301 12.1828 16.21 11.9154 16.2002C11.6479 16.1904 11.3914 16.0915 11.1867 15.9192L7.87587 13.2708C7.75279 13.1723 7.65032 13.0505 7.5743 12.9124C7.49829 12.7744 7.45022 12.6226 7.43284 12.466C7.41545 12.3093 7.4291 12.1507 7.47299 11.9993C7.51689 11.8479 7.59017 11.7067 7.68867 11.5836C7.78716 11.4605 7.90892 11.3581 8.04702 11.282C8.18511 11.206 8.33682 11.158 8.49349 11.1406C8.65017 11.1232 8.80873 11.1368 8.96012 11.1807C9.11152 11.2246 9.25279 11.2979 9.37587 11.3964L11.5995 13.176L14.2431 8.4168C14.3196 8.27907 14.4226 8.15777 14.5461 8.05982C14.6695 7.96188 14.8111 7.88922 14.9626 7.84599C15.1142 7.80275 15.2728 7.78979 15.4293 7.80784C15.5859 7.82589 15.7373 7.87461 15.8751 7.9512Z" fill="black"/>
</svg>
