<svg width="25" height="24" viewBox="0 0 25 24" fill="none" xmlns="http://www.w3.org/2000/svg">
<path d="M12.4832 0C14.0745 0 15.6006 0.632141 16.7258 1.75736C17.851 2.88258 18.4832 4.4087 18.4832 6C18.4832 7.5913 17.851 9.11742 16.7258 10.2426C15.6006 11.3679 14.0745 12 12.4832 12C10.8919 12 9.36573 11.3679 8.24051 10.2426C7.11529 9.11742 6.48315 7.5913 6.48315 6C6.48315 4.4087 7.11529 2.88258 8.24051 1.75736C9.36573 0.632141 10.8919 0 12.4832 0ZM12.4832 15C19.1132 15 24.4832 17.685 24.4832 21V24H0.483154V21C0.483154 17.685 5.85315 15 12.4832 15Z" fill="black"/>
</svg>
