<svg width="58" height="300" viewBox="0 0 58 300" fill="none" xmlns="http://www.w3.org/2000/svg">
<path fill-rule="evenodd" clip-rule="evenodd" d="M26.0002 1.44995C26.3848 1.44995 26.7536 1.60272 27.0255 1.87465C27.2974 2.14657 27.4502 2.51539 27.4502 2.89995L27.4502 55.0999C27.4502 55.4845 27.2974 55.8533 27.0255 56.1253C26.7536 56.3972 26.3848 56.5499 26.0002 56.5499C25.6156 56.5499 25.2468 56.3972 24.9749 56.1253C24.703 55.8533 24.5502 55.4845 24.5502 55.0999L24.5502 2.89995C24.5502 2.51539 24.703 2.14657 24.9749 1.87465C25.2468 1.60272 25.6156 1.44995 26.0002 1.44995Z" fill="white"/>
<path fill-rule="evenodd" clip-rule="evenodd" d="M26.4998 244.425C26.8777 244.425 27.2402 244.575 27.5074 244.842C27.7747 245.11 27.9248 245.472 27.9248 245.85L27.9248 297.15C27.9248 297.528 27.7747 297.89 27.5074 298.158C27.2402 298.425 26.8777 298.575 26.4998 298.575C26.1219 298.575 25.7594 298.425 25.4922 298.158C25.2249 297.89 25.0748 297.528 25.0748 297.15L25.0748 245.85C25.0748 245.472 25.2249 245.11 25.4922 244.842C25.7594 244.575 26.1219 244.425 26.4998 244.425Z" fill="white"/>
<g clip-path="url(#clip0_72_3002)">
<path d="M32.6436 95.0747L25.9995 88.4243L19.3491 95.0683L25.9931 101.719L32.6436 95.0747Z" fill="#F3F3F3"/>
</g>
<g clip-path="url(#clip1_72_3002)">
<path d="M32.6436 200.259L25.9995 193.608L19.3491 200.252L25.9931 206.903L32.6436 200.259Z" fill="#F3F3F3"/>
</g>
<g clip-path="url(#clip2_72_3002)">
<path d="M32.6436 148.956L25.9995 142.306L19.3491 148.95L25.9931 155.6L32.6436 148.956Z" fill="#F3F3F3"/>
</g>
<defs>
<clipPath id="clip0_72_3002">
<rect width="12.5341" height="12.5341" fill="white" transform="matrix(-0.706767 -0.707447 -0.707447 0.706767 37.8594 95.0757)"/>
</clipPath>
<clipPath id="clip1_72_3002">
<rect width="12.5341" height="12.5341" fill="white" transform="matrix(-0.706767 -0.707447 -0.707447 0.706767 37.8594 200.26)"/>
</clipPath>
<clipPath id="clip2_72_3002">
<rect width="12.5341" height="12.5341" fill="white" transform="matrix(-0.706767 -0.707447 -0.707447 0.706767 37.8594 148.957)"/>
</clipPath>
</defs>
</svg>
