<svg width="26" height="28" viewBox="0 0 26 28" fill="none" xmlns="http://www.w3.org/2000/svg">
<path d="M10.2156 22.5758C4.50863 24.2879 4.50863 19.7223 2.22583 19.1516M18.2054 26V21.5828C18.2483 21.0385 18.1747 20.4914 17.9897 19.9777C17.8047 19.4641 17.5125 18.9957 17.1325 18.6037C20.7165 18.2042 24.4831 16.846 24.4831 10.6139C24.4829 9.02032 23.8699 7.48785 22.771 6.33366C23.2914 4.93945 23.2546 3.39838 22.6683 2.03058C22.6683 2.03058 21.3215 1.63109 18.2054 3.71986C15.5894 3.01084 12.8317 3.01084 10.2156 3.71986C7.09961 1.63109 5.75276 2.03058 5.75276 2.03058C5.16651 3.39838 5.12972 4.93945 5.65003 6.33366C4.54302 7.49641 3.9294 9.04274 3.93793 10.6482C3.93793 16.8346 7.70455 18.1928 11.2886 18.638C10.913 19.026 10.6234 19.4888 10.4386 19.9961C10.2537 20.5035 10.1778 21.0441 10.2156 21.5828V26" stroke="black" stroke-width="3" stroke-linecap="round" stroke-linejoin="round"/>
</svg>
