<svg width="25" height="24" viewBox="0 0 25 24" fill="none" xmlns="http://www.w3.org/2000/svg">
<path d="M11.7258 20.116V15.385H9.22583C8.11183 15.385 7.16683 14.9967 6.39083 14.22C5.61416 13.444 5.22583 12.499 5.22583 11.385C5.22583 10.5003 5.51383 9.717 6.08983 9.035C6.66516 8.35433 7.36816 7.835 8.19883 7.477C8.33616 6.163 8.76983 5.15233 9.49983 4.445C10.2298 3.73767 11.1385 3.38433 12.2258 3.385C13.3132 3.38567 14.2218 3.739 14.9518 4.445C15.6818 5.151 16.1155 6.16167 16.2528 7.477C17.0962 7.809 17.8028 8.32233 18.3728 9.017C18.9415 9.71033 19.2258 10.4997 19.2258 11.385C19.2258 12.4983 18.8378 13.4433 18.0618 14.22C17.2845 14.9967 16.3392 15.385 15.2258 15.385H12.7258V20.115H17.7258C17.8685 20.115 17.9875 20.163 18.0828 20.259C18.1782 20.355 18.2258 20.4737 18.2258 20.615C18.2258 20.7563 18.1782 20.8753 18.0828 20.972C17.9875 21.0687 17.8685 21.1167 17.7258 21.116H6.72583C6.58383 21.116 6.46483 21.068 6.36883 20.972C6.2735 20.8767 6.22583 20.7577 6.22583 20.615C6.22583 20.473 6.2735 20.3543 6.36883 20.259C6.46416 20.1637 6.58316 20.1157 6.72583 20.115L11.7258 20.116Z" fill="black"/>
</svg>
