<svg width="24" height="24" viewBox="0 0 24 24" fill="none" xmlns="http://www.w3.org/2000/svg">
<path d="M10.1613 2.99998C8.23633 2.99998 6.39022 3.79016 5.02906 5.19668C3.66791 6.60321 2.90323 8.51086 2.90323 10.5C2.90323 12.4891 3.66791 14.3968 5.02906 15.8033C6.39022 17.2098 8.23633 18 10.1613 18C12.0862 18 13.9324 17.2098 15.2935 15.8033C16.6547 14.3968 17.4194 12.4891 17.4194 10.5C17.4194 8.51086 16.6547 6.60321 15.2935 5.19668C13.9324 3.79016 12.0862 2.99998 10.1613 2.99998ZM3.20199e-07 10.5C3.06261e-06 8.83687 0.382319 7.19755 1.11547 5.71701C1.84861 4.23647 2.91162 2.95706 4.21694 1.98415C5.52227 1.01123 7.03258 0.37263 8.6235 0.120939C10.2144 -0.130752 11.8405 0.0116635 13.3677 0.536458C14.8949 1.06125 16.2797 1.95341 17.4079 3.13948C18.5361 4.32554 19.3756 5.77157 19.8571 7.3585C20.3387 8.94543 20.4485 10.6279 20.1776 12.2672C19.9067 13.9066 19.2629 15.4561 18.299 16.788L22.8005 21.438L20.7479 23.5605L16.2479 18.9105C14.7375 20.078 12.9425 20.788 11.0637 20.9611C9.18495 21.1342 7.29665 20.7635 5.61021 19.8906C3.92376 19.0176 2.50574 17.6768 1.51491 16.0183C0.524071 14.3598 -0.000473117 12.4491 3.20199e-07 10.5Z" fill="black"/>
</svg>
