<svg width="25" height="24" viewBox="0 0 25 24" fill="none" xmlns="http://www.w3.org/2000/svg">
<path d="M11.2258 9H13.2258V7H11.2258M12.2258 20C7.81583 20 4.22583 16.41 4.22583 12C4.22583 7.59 7.81583 4 12.2258 4C16.6358 4 20.2258 7.59 20.2258 12C20.2258 16.41 16.6358 20 12.2258 20ZM12.2258 2C10.9126 2 9.61225 2.25866 8.399 2.7612C7.18574 3.26375 6.08335 4.00035 5.15476 4.92893C3.2794 6.8043 2.22583 9.34784 2.22583 12C2.22583 14.6522 3.2794 17.1957 5.15476 19.0711C6.08335 19.9997 7.18574 20.7363 8.399 21.2388C9.61225 21.7413 10.9126 22 12.2258 22C14.878 22 17.4215 20.9464 19.2969 19.0711C21.1723 17.1957 22.2258 14.6522 22.2258 12C22.2258 10.6868 21.9672 9.38642 21.4646 8.17317C20.9621 6.95991 20.2255 5.85752 19.2969 4.92893C18.3683 4.00035 17.2659 3.26375 16.0527 2.7612C14.8394 2.25866 13.539 2 12.2258 2ZM11.2258 17H13.2258V11H11.2258V17Z" fill="black"/>
</svg>
