<svg width="25" height="24" viewBox="0 0 25 24" fill="none" xmlns="http://www.w3.org/2000/svg">
<g clip-path="url(#clip0_30_213)">
<path d="M17.5402 6.68572C19.3917 7.47691 21.474 7.53815 23.3688 6.85714M7.08305 23.1429C7.76344 21.2421 7.70222 19.1547 6.91162 17.2971C6.29279 15.8181 6.12536 14.189 6.43041 12.6149C6.73546 11.0409 7.49934 9.59226 8.62591 8.45143C9.78077 7.30851 11.2481 6.53307 12.843 6.22286" stroke="#F4E2CE" stroke-width="3" stroke-linecap="round" stroke-linejoin="round"/>
<path d="M11.5401 17.7771C13.1432 17.4653 14.6171 16.6836 15.7744 15.5314M15.7744 15.5314C16.903 14.3918 17.6682 12.9431 17.9733 11.3686C18.2785 9.79406 18.1098 8.1644 17.4887 6.68572C16.7142 4.8277 16.6714 2.74546 17.3687 0.857143M15.7744 15.5314L8.69444 8.45143M1.08301 17.1429C2.97858 16.4586 5.06419 16.5261 6.91158 17.3314" stroke="#F4E2CE" stroke-width="3" stroke-linecap="round" stroke-linejoin="round"/>
</g>
<defs>
<clipPath id="clip0_30_213">
<rect width="24" height="24" fill="white" transform="translate(0.22583)"/>
</clipPath>
</defs>
</svg>
