<svg width="25" height="24" viewBox="0 0 25 24" fill="none" xmlns="http://www.w3.org/2000/svg">
<path d="M8.39871 23.3704C6.92826 24.6111 4.36188 23.9052 2.72866 22.2372C0.560186 20.0226 -0.224953 15.8282 0.474107 12.0878L8.39871 23.3704ZM10.1083 21.9402C9.15623 21.5771 5.33156 19.8049 6.84593 13.5139C4.41986 12.0828 0.938453 11.0063 0.715607 10.7728C0.715607 10.7728 0.724692 11.1512 0.613179 11.8932L8.8463 22.9253C9.05084 22.5635 9.59316 22.2747 10.1083 21.9402ZM7.50799 18.21C8.31977 20.6091 9.75606 20.8927 10.8148 21.4861L21.5656 0.843383H21.6928L11.7116 22.1716C12.7238 23.0282 14.0741 23.8895 16.1007 23.4795C24.4551 22.1402 26.3624 10.043 21.8433 0C16.5288 3.27157 12.5516 5.03568 9.95707 8.49909C7.93906 11.1929 6.37356 14.9864 7.50799 18.21Z" fill="black"/>
</svg>
