<svg width="27" height="26" viewBox="0 0 27 26" fill="none" xmlns="http://www.w3.org/2000/svg">
<path d="M19.4832 1H7.48315C4.16945 1 1.48315 3.68629 1.48315 7V19C1.48315 22.3137 4.16945 25 7.48315 25H19.4832C22.7969 25 25.4832 22.3137 25.4832 19V7C25.4832 3.68629 22.7969 1 19.4832 1Z" stroke="black" stroke-width="2" stroke-linecap="round" stroke-linejoin="round"/>
<path d="M18.461 12.2619C18.6163 13.3089 18.4374 14.3782 17.9499 15.3177C17.4624 16.2572 16.6911 17.0191 15.7456 17.495C14.8002 17.9709 13.7287 18.1365 12.6837 17.9683C11.6387 17.8002 10.6733 17.3068 9.92485 16.5583C9.1764 15.8099 8.683 14.8445 8.51484 13.7995C8.34669 12.7545 8.51233 11.683 8.9882 10.7376C9.46408 9.79209 10.226 9.02076 11.1655 8.53326C12.105 8.04576 13.1743 7.86692 14.2213 8.02218C15.2893 8.18055 16.2781 8.67821 17.0415 9.44166C17.805 10.2051 18.3026 11.1939 18.461 12.2619Z" stroke="black" stroke-width="2" stroke-linecap="round" stroke-linejoin="round"/>
<path d="M20.8337 6.74967C20.8457 6.83021 20.8319 6.91246 20.7944 6.98474C20.7569 7.05701 20.6976 7.11561 20.6249 7.15222C20.5521 7.18882 20.4697 7.20157 20.3893 7.18863C20.3089 7.1757 20.2347 7.13774 20.1771 7.08017C20.1195 7.0226 20.0816 6.94833 20.0686 6.86795C20.0557 6.78756 20.0684 6.70514 20.105 6.63242C20.1417 6.55969 20.2003 6.50035 20.2725 6.46285C20.3448 6.42535 20.4271 6.4116 20.5076 6.42354C20.5898 6.43572 20.6658 6.47401 20.7245 6.53273C20.7833 6.59146 20.8215 6.66752 20.8337 6.74967Z" stroke="black" stroke-width="3" stroke-linecap="round" stroke-linejoin="round"/>
</svg>
