<svg width="24" height="25" viewBox="0 0 24 25" fill="none" xmlns="http://www.w3.org/2000/svg">
<path d="M4.875 24.9375C4.22187 24.9375 3.66296 24.7051 3.19825 24.2404C2.73354 23.7757 2.50079 23.2164 2.5 22.5625V10.6875C2.5 10.0344 2.73275 9.47546 3.19825 9.01075C3.66375 8.54604 4.22267 8.31329 4.875 8.3125H6.0625V5.9375C6.0625 4.29479 6.6416 2.89473 7.79981 1.73731C8.95802 0.579897 10.3581 0.000792477 12 8.1058e-07C13.6419 -0.000790856 15.0424 0.578313 16.2014 1.73731C17.3604 2.89631 17.9391 4.29638 17.9375 5.9375V8.3125H19.125C19.7781 8.3125 20.3374 8.54525 20.8029 9.01075C21.2684 9.47625 21.5008 10.0352 21.5 10.6875V22.5625C21.5 23.2156 21.2676 23.7749 20.8029 24.2404C20.3382 24.7059 19.7789 24.9383 19.125 24.9375H4.875ZM12 19C12.6531 19 13.2124 18.7676 13.6779 18.3029C14.1434 17.8382 14.3758 17.2789 14.375 16.625C14.3742 15.9711 14.1419 15.4122 13.6779 14.9483C13.214 14.4843 12.6547 14.2516 12 14.25C11.3453 14.2484 10.7864 14.4812 10.3232 14.9483C9.86012 15.4153 9.62737 15.9743 9.625 16.625C9.62262 17.2758 9.85537 17.8351 10.3232 18.3029C10.7911 18.7708 11.35 19.0032 12 19ZM8.4375 8.3125H15.5625V5.9375C15.5625 4.94792 15.2161 4.10677 14.5234 3.41406C13.8307 2.72136 12.9896 2.375 12 2.375C11.0104 2.375 10.1693 2.72136 9.47656 3.41406C8.78385 4.10677 8.4375 4.94792 8.4375 5.9375V8.3125Z" fill="white"/>
</svg>
