<svg width="200" height="229" viewBox="0 0 200 229" fill="none" xmlns="http://www.w3.org/2000/svg">
<mask id="mask0_22_795" style="mask-type:luminance" maskUnits="userSpaceOnUse" x="52" y="71" width="124" height="158">
<path d="M52.5144 71.862H175.125V228.561H52.5144V71.862Z" fill="white"/>
</mask>
<g mask="url(#mask0_22_795)">
<mask id="mask1_22_795" style="mask-type:luminance" maskUnits="userSpaceOnUse" x="52" y="71" width="124" height="158">
<path fill-rule="evenodd" clip-rule="evenodd" d="M52.5927 228.531C63.6375 201.445 237.531 162.933 151.086 71.9088C216.733 164.41 50.9204 170.376 52.5927 228.531Z" fill="white"/>
</mask>
<g mask="url(#mask1_22_795)">
<path d="M312.672 128.164L117.947 -17.6194L-24.2203 172.276L170.505 318.059L312.672 128.164Z" fill="white"/>
</g>
</g>
<mask id="mask2_22_795" style="mask-type:luminance" maskUnits="userSpaceOnUse" x="96" y="136" width="83" height="79">
<path d="M96.1996 136.891H178.887V214.281H96.1996V136.891Z" fill="white"/>
</mask>
<g mask="url(#mask2_22_795)">
<mask id="mask3_22_795" style="mask-type:luminance" maskUnits="userSpaceOnUse" x="96" y="136" width="83" height="79">
<path fill-rule="evenodd" clip-rule="evenodd" d="M96.2218 213.803C96.2218 213.803 170.106 201.745 175.565 136.954C175.565 136.954 193.596 172.974 144.859 207.174C144.859 207.174 107.154 216.272 96.2218 213.803Z" fill="white"/>
</mask>
<g mask="url(#mask3_22_795)">
<path d="M231.65 165.443L131.197 90.2375L58.1682 187.783L158.622 262.989L231.65 165.443Z" fill="white"/>
</g>
</g>
<mask id="mask4_22_795" style="mask-type:luminance" maskUnits="userSpaceOnUse" x="29" y="49" width="171" height="167">
<path d="M29.4818 49.2899H200V215.893H29.4818V49.2899Z" fill="white"/>
</mask>
<g mask="url(#mask4_22_795)">
<mask id="mask5_22_795" style="mask-type:luminance" maskUnits="userSpaceOnUse" x="29" y="49" width="171" height="167">
<path fill-rule="evenodd" clip-rule="evenodd" d="M59.0703 184.574C63.0404 188.675 67.4916 192.367 72.383 195.55C71.0778 198.477 70.499 201.107 70.3377 203.373C64.7684 199.984 59.6875 196.006 55.1415 191.556C56.2896 189.28 57.6313 186.822 59.0703 184.574ZM140.329 49.3322C141.185 49.6031 142.042 49.8835 142.897 50.1828C187.314 65.746 210.705 114.37 195.142 158.787C180.793 199.74 138.337 222.819 96.988 213.971C101.77 214.657 114.01 210.919 123.506 207.634C152.092 204.352 177.714 185.214 187.868 156.237C202.023 115.838 180.748 71.6125 140.348 57.4573C138.677 56.8715 137 56.3533 135.32 55.8873C136.789 53.6953 138.498 51.3752 140.329 49.3322ZM37.1893 130.25C37.1401 141.023 39.3567 151.57 43.5316 161.255C41.627 162.881 39.5447 164.685 37.4526 166.544C32.5444 155.996 29.781 144.443 29.5018 132.594C32.416 132.129 35.1484 131.143 37.1893 130.25ZM34.2934 102.427C38.7056 89.8329 45.7797 78.9307 54.6587 70.1261C57.0564 71.0672 59.8524 72.0407 62.9504 72.9039C53.5307 81.3384 46.0445 92.1997 41.5679 104.976C41.3145 105.698 41.0739 106.422 40.8436 107.146L33.7482 104.038C33.9248 103.5 34.1051 102.963 34.2934 102.427Z" fill="white"/>
</mask>
<g mask="url(#mask5_22_795)">
<path d="M293.936 111.645L94.5858 -37.6018L-53.7299 160.506L145.621 309.753L293.936 111.645Z" fill="white"/>
</g>
</g>
<mask id="mask6_22_795" style="mask-type:luminance" maskUnits="userSpaceOnUse" x="52" y="71" width="124" height="158">
<path d="M52.5912 71.862H175.125V228.561H52.5912V71.862Z" fill="white"/>
</mask>
<g mask="url(#mask6_22_795)">
<mask id="mask7_22_795" style="mask-type:luminance" maskUnits="userSpaceOnUse" x="52" y="71" width="124" height="158">
<path fill-rule="evenodd" clip-rule="evenodd" d="M52.5927 228.531C63.6376 201.445 237.531 162.933 151.086 71.9088C151.086 71.9088 192.663 117.974 153.211 152.348C113.761 186.722 54.7049 205.501 52.5927 228.531Z" fill="white"/>
</mask>
<g mask="url(#mask7_22_795)">
<path d="M312.672 128.164L119.018 -16.8172L-22.5479 172.276L171.106 317.257L312.672 128.164Z" fill="white"/>
</g>
</g>
<mask id="mask8_22_795" style="mask-type:luminance" maskUnits="userSpaceOnUse" x="31" y="77" width="121" height="121">
<path d="M31.785 77.6202H151.094V197.62H31.785V77.6202Z" fill="white"/>
</mask>
<g mask="url(#mask8_22_795)">
<mask id="mask9_22_795" style="mask-type:luminance" maskUnits="userSpaceOnUse" x="31" y="77" width="121" height="121">
<path fill-rule="evenodd" clip-rule="evenodd" d="M31.8066 77.7008L31.8417 77.7077L31.8219 77.6939L31.8066 77.7008ZM42.3609 197.612C42.9598 196.857 57.5285 173.679 75.2921 163.242C99.6644 148.922 119.717 155.064 134.445 124.42C139.341 116.889 145.03 106.926 151.041 100.314C145.658 98.2728 141.987 96.1729 137.229 94.1086C133.844 92.6397 128.782 92.0042 120.633 93.6372C120.633 93.6372 117.597 100.848 122.642 107.664C123.214 108.303 123.767 108.959 124.283 109.633L124.299 109.649C124.46 109.822 124.57 109.98 124.656 110.131C140.169 133.623 86.364 146.588 75.4388 149.282C66.5736 151.468 63.885 156.372 59.1663 162.516C47.871 177.226 42.7855 197.951 42.3609 197.612Z" fill="white"/>
</mask>
<g mask="url(#mask9_22_795)">
<path d="M208.736 120.888L74.6329 20.4898L-25.888 154.757L108.215 255.155L208.736 120.888Z" fill="white"/>
</g>
</g>
<mask id="mask10_22_795" style="mask-type:luminance" maskUnits="userSpaceOnUse" x="81" y="58" width="34" height="82">
<path d="M81 58H114.013V139.612H81V58Z" fill="white"/>
</mask>
<g mask="url(#mask10_22_795)">
<mask id="mask11_22_795" style="mask-type:luminance" maskUnits="userSpaceOnUse" x="81" y="58" width="33" height="82">
<path fill-rule="evenodd" clip-rule="evenodd" d="M99.2456 113.421C99.2456 113.421 97.5544 112.151 95.9895 110.639C93.7408 108.465 91.5383 104.918 93.1821 96.5759C95.9688 82.4338 110.948 64.2572 113.698 59.2467C116.447 54.2371 96.8703 65.5492 89.7869 86.4991C81.7147 110.372 96.2384 116.422 81.0252 139.593C81.0252 139.593 96.7714 131.744 97.2686 122.337C97.767 112.931 99.7416 113.624 99.2456 113.421Z" fill="white"/>
</mask>
<g mask="url(#mask11_22_795)">
<path d="M157.397 84.8952L93.7478 37.2436L40.0751 108.935L103.724 156.587L157.397 84.8952Z" fill="white"/>
</g>
</g>
<mask id="mask12_22_795" style="mask-type:luminance" maskUnits="userSpaceOnUse" x="119" y="19" width="16" height="33">
<path d="M119.002 19.7313H134.434V51.9003H119.002V19.7313Z" fill="white"/>
</mask>
<g mask="url(#mask12_22_795)">
<mask id="mask13_22_795" style="mask-type:luminance" maskUnits="userSpaceOnUse" x="119" y="19" width="16" height="33">
<path fill-rule="evenodd" clip-rule="evenodd" d="M131.837 20.6689C141.281 13.2699 121.855 52.3196 119.899 51.865C116.036 50.9677 125.9 25.3207 131.837 20.6689Z" fill="white"/>
</mask>
<g mask="url(#mask13_22_795)">
<path d="M160.015 27.2955L125.103 1.15853L97.3018 38.2936L132.213 64.4309L160.015 27.2955Z" fill="white"/>
</g>
</g>
<mask id="mask14_22_795" style="mask-type:luminance" maskUnits="userSpaceOnUse" x="108" y="0" width="10" height="53">
<path d="M108.56 0H117.39V52.8984H108.56V0Z" fill="white"/>
</mask>
<g mask="url(#mask14_22_795)">
<mask id="mask15_22_795" style="mask-type:luminance" maskUnits="userSpaceOnUse" x="108" y="0" width="10" height="53">
<path fill-rule="evenodd" clip-rule="evenodd" d="M115.142 52.5085C115.142 52.5085 119.688 3.50799 115.831 0.37788C111.975 -2.75163 107.271 17.9001 108.995 31.3451C110.721 44.7902 112.673 54.8547 115.142 52.5085Z" fill="white"/>
</mask>
<g mask="url(#mask15_22_795)">
<path d="M147.325 17.9391L111.73 -8.70864L79.6335 34.1637L115.228 60.8117L147.325 17.9391Z" fill="white"/>
</g>
</g>
<mask id="mask16_22_795" style="mask-type:luminance" maskUnits="userSpaceOnUse" x="91" y="4" width="14" height="52">
<path d="M91.977 4.14588H104.798V55.3552H91.977V4.14588Z" fill="white"/>
</mask>
<g mask="url(#mask16_22_795)">
<mask id="mask17_22_795" style="mask-type:luminance" maskUnits="userSpaceOnUse" x="92" y="4" width="13" height="52">
<path fill-rule="evenodd" clip-rule="evenodd" d="M104.734 55.2662C104.734 55.2662 99.5822 8.16581 96.0431 4.80777C92.5036 1.44944 89.9277 11.573 94.5376 29.5808C99.1462 47.5895 102.555 56.2405 104.734 55.2662Z" fill="white"/>
</mask>
<g mask="url(#mask17_22_795)">
<path d="M131.02 21.1292L95.246 -5.65381L63.6415 36.5608L99.4161 63.3438L131.02 21.1292Z" fill="white"/>
</g>
</g>
<mask id="mask18_22_795" style="mask-type:luminance" maskUnits="userSpaceOnUse" x="57" y="117" width="19" height="22">
<path d="M57.9655 117.39H75.3935V138.426H57.9655V117.39Z" fill="white"/>
</mask>
<g mask="url(#mask18_22_795)">
<mask id="mask19_22_795" style="mask-type:luminance" maskUnits="userSpaceOnUse" x="58" y="117" width="18" height="22">
<path fill-rule="evenodd" clip-rule="evenodd" d="M75.1385 118.405C75.1385 118.405 66.4068 140.196 59.2706 138.237C52.1344 136.276 77.8218 112.333 75.1385 118.405Z" fill="white"/>
</mask>
<g mask="url(#mask19_22_795)">
<path d="M91.1897 122.341L61.3607 100.009L38.7668 130.188L68.5955 152.52L91.1897 122.341Z" fill="white"/>
</g>
</g>
<mask id="mask20_22_795" style="mask-type:luminance" maskUnits="userSpaceOnUse" x="46" y="118" width="21" height="14">
<path d="M46.2188 118.081H66.6411V131.67H46.2188V118.081Z" fill="white"/>
</mask>
<g mask="url(#mask20_22_795)">
<mask id="mask21_22_795" style="mask-type:luminance" maskUnits="userSpaceOnUse" x="46" y="118" width="21" height="14">
<path fill-rule="evenodd" clip-rule="evenodd" d="M66.6141 118.342C66.023 119.316 52.9499 133.782 47.2562 131.315C41.5625 128.847 62.5084 116.402 66.6141 118.342Z" fill="white"/>
</mask>
<g mask="url(#mask21_22_795)">
<path d="M74.9524 122.644L50.5606 104.383L33.2243 127.539L57.6161 145.801L74.9524 122.644Z" fill="white"/>
</g>
</g>
<mask id="mask22_22_795" style="mask-type:luminance" maskUnits="userSpaceOnUse" x="31" y="117" width="24" height="11">
<path d="M31.8618 117.774H54.357V127.524H31.8618V117.774Z" fill="white"/>
</mask>
<g mask="url(#mask22_22_795)">
<mask id="mask23_22_795" style="mask-type:luminance" maskUnits="userSpaceOnUse" x="31" y="117" width="24" height="11">
<path fill-rule="evenodd" clip-rule="evenodd" d="M54.198 118.549C54.198 118.549 34.9022 131.078 32.0822 126.449C29.2628 121.82 56.1189 115.649 54.198 118.549Z" fill="white"/>
</mask>
<g mask="url(#mask23_22_795)">
<path d="M63.5209 121.191L38.909 102.765L21.8612 125.536L46.4728 143.962L63.5209 121.191Z" fill="white"/>
</g>
</g>
<mask id="mask24_22_795" style="mask-type:luminance" maskUnits="userSpaceOnUse" x="21" y="114" width="26" height="7">
<path d="M21.0365 114.089H46.2956V120.538H21.0365V114.089Z" fill="white"/>
</mask>
<g mask="url(#mask24_22_795)">
<mask id="mask25_22_795" style="mask-type:luminance" maskUnits="userSpaceOnUse" x="21" y="114" width="26" height="7">
<path fill-rule="evenodd" clip-rule="evenodd" d="M46.241 116.065C46.241 116.065 34.9865 123.066 25.3674 119.457C15.7486 115.847 21.9182 111.494 46.241 116.065Z" fill="white"/>
</mask>
<g mask="url(#mask25_22_795)">
<path d="M51.7932 115.65L26.7008 96.8644L10.1968 118.91L35.2888 137.695L51.7932 115.65Z" fill="white"/>
</g>
</g>
<mask id="mask26_22_795" style="mask-type:luminance" maskUnits="userSpaceOnUse" x="0" y="94" width="38" height="18">
<path d="M0 94.5108H37.5432V111.248H0V94.5108Z" fill="white"/>
</mask>
<g mask="url(#mask26_22_795)">
<mask id="mask27_22_795" style="mask-type:luminance" maskUnits="userSpaceOnUse" x="0" y="94" width="38" height="18">
<path fill-rule="evenodd" clip-rule="evenodd" d="M37.4679 110.36C37.4679 110.36 13.3556 101.764 5.09866 96.064C-3.1583 90.3649 -1.18223 102.042 10.5641 106.573C22.3102 111.105 36.307 112.16 37.4679 110.36Z" fill="white"/>
</mask>
<g mask="url(#mask27_22_795)">
<path d="M47.9244 98.1933L11.4338 70.8741L-13.6147 104.332L22.8758 131.651L47.9244 98.1933Z" fill="white"/>
</g>
</g>
<mask id="mask28_22_795" style="mask-type:luminance" maskUnits="userSpaceOnUse" x="67" y="101" width="20" height="12">
<path d="M67.332 101.574H86.0652V112.86H67.332V101.574Z" fill="white"/>
</mask>
<g mask="url(#mask28_22_795)">
<mask id="mask29_22_795" style="mask-type:luminance" maskUnits="userSpaceOnUse" x="67" y="101" width="20" height="12">
<path fill-rule="evenodd" clip-rule="evenodd" d="M84.7501 104.181C78.83 111.058 58.3862 118.248 71.8678 106.825C77.5294 102.028 84.7447 101.184 85.7605 101.782C86.7763 102.38 84.7501 104.181 84.7501 104.181Z" fill="white"/>
</mask>
<g mask="url(#mask29_22_795)">
<path d="M94.9628 107.313L68.5832 87.5638L50.1994 112.119L76.5793 131.869L94.9628 107.313Z" fill="white"/>
</g>
</g>
<mask id="mask30_22_795" style="mask-type:luminance" maskUnits="userSpaceOnUse" x="75" y="17" width="24" height="43">
<path d="M75.1631 17.8119H98.1958V59.2708H75.1631V17.8119Z" fill="white"/>
</mask>
<g mask="url(#mask30_22_795)">
<mask id="mask31_22_795" style="mask-type:luminance" maskUnits="userSpaceOnUse" x="75" y="17" width="24" height="43">
<path fill-rule="evenodd" clip-rule="evenodd" d="M98.182 58.7004C98.182 58.7004 83.173 15.3758 77.3611 17.9724C71.5487 20.569 78.5245 31.9402 86.0314 43.9915C93.5395 56.0438 96.5421 60.8648 98.182 58.7004Z" fill="white"/>
</mask>
<g mask="url(#mask31_22_795)">
<path d="M120.006 31.7143L81.1147 2.59807L49.725 44.526L88.6159 73.6422L120.006 31.7143Z" fill="white"/>
</g>
</g>
<mask id="mask32_22_795" style="mask-type:luminance" maskUnits="userSpaceOnUse" x="61" y="38" width="33" height="26">
<path d="M61.4203 38.3878H93.8964V63.3399H61.4203V38.3878Z" fill="white"/>
</mask>
<g mask="url(#mask32_22_795)">
<mask id="mask33_22_795" style="mask-type:luminance" maskUnits="userSpaceOnUse" x="61" y="38" width="33" height="26">
<path fill-rule="evenodd" clip-rule="evenodd" d="M93.8658 62.0263C92.8746 61.6193 66.232 36.2219 63.4057 38.595C60.5803 40.9682 59.9577 43.898 67.5447 48.9768C75.1317 54.056 94.5151 67.5026 93.8658 62.0263Z" fill="white"/>
</mask>
<g mask="url(#mask33_22_795)">
<path d="M109.522 47.4572L72.3701 19.6426L44.9505 56.2672L82.1029 84.0819L109.522 47.4572Z" fill="white"/>
</g>
</g>
<mask id="mask34_22_795" style="mask-type:luminance" maskUnits="userSpaceOnUse" x="57" y="58" width="34" height="15">
<path d="M57.8887 58.8869H90.7486V72.0923H57.8887V58.8869Z" fill="white"/>
</mask>
<g mask="url(#mask34_22_795)">
<mask id="mask35_22_795" style="mask-type:luminance" maskUnits="userSpaceOnUse" x="57" y="58" width="34" height="15">
<path fill-rule="evenodd" clip-rule="evenodd" d="M86.863 68.1276C85.7573 67.5464 59.1285 55.2746 58.0998 59.9903C57.0717 64.7051 60.4592 65.7451 70.0615 69.2102C79.6638 72.6741 91.4533 72.7212 90.6796 70.8915C89.9055 69.0612 86.8723 68.2475 86.863 68.1276Z" fill="white"/>
</mask>
<g mask="url(#mask35_22_795)">
<path d="M99.8234 61.5411L69.4209 38.7798L48.7017 66.4547L79.1042 89.216L99.8234 61.5411Z" fill="white"/>
</g>
</g>
<mask id="mask36_22_795" style="mask-type:luminance" maskUnits="userSpaceOnUse" x="59" y="78" width="27" height="7">
<path d="M59.5778 78.4647H85.5279V84.53H59.5778V78.4647Z" fill="white"/>
</mask>
<g mask="url(#mask36_22_795)">
<mask id="mask37_22_795" style="mask-type:luminance" maskUnits="userSpaceOnUse" x="59" y="78" width="27" height="7">
<path fill-rule="evenodd" clip-rule="evenodd" d="M81.683 79.7093C80.4822 79.5021 60.0684 76.3105 59.6353 81.0913C59.2022 85.8726 78.9758 84.4625 82.9519 83.4728C86.9281 82.4831 86.0353 79.7798 81.683 79.7093Z" fill="white"/>
</mask>
<g mask="url(#mask37_22_795)">
<path d="M91.5157 79.745L69.1609 63.0085L54.6146 82.4381L76.9698 99.1746L91.5157 79.745Z" fill="white"/>
</g>
</g>
<mask id="mask38_22_795" style="mask-type:luminance" maskUnits="userSpaceOnUse" x="60" y="90" width="24" height="9">
<path d="M60.6526 90.2114H83.6852V98.5799H60.6526V90.2114Z" fill="white"/>
</mask>
<g mask="url(#mask38_22_795)">
<mask id="mask39_22_795" style="mask-type:luminance" maskUnits="userSpaceOnUse" x="60" y="90" width="24" height="9">
<path fill-rule="evenodd" clip-rule="evenodd" d="M83.1946 90.2261C82.7639 90.2351 59.8765 91.5259 60.688 96.6299C61.4996 101.735 87.2223 95.6993 83.1946 90.2261Z" fill="white"/>
</mask>
<g mask="url(#mask39_22_795)">
<path d="M92.7435 94.3597L69.6983 77.1064L54.3549 97.601L77.4001 114.854L92.7435 94.3597Z" fill="white"/>
</g>
</g>
<mask id="mask40_22_795" style="mask-type:luminance" maskUnits="userSpaceOnUse" x="8" y="83" width="93" height="120">
<path d="M8.82916 83.5461H100.576V202.932H8.82916V83.5461Z" fill="white"/>
</mask>
<g mask="url(#mask40_22_795)">
<mask id="mask41_22_795" style="mask-type:luminance" maskUnits="userSpaceOnUse" x="8" y="83" width="93" height="120">
<path fill-rule="evenodd" clip-rule="evenodd" d="M97.2646 83.636C97.2646 83.636 100.341 121.605 74.4014 144.204C48.4615 166.803 8.87537 202.914 8.87537 202.914C41.4165 180.191 86.6963 161.569 98.5074 119.581C103.823 100.685 96.9536 82.6991 97.2646 83.636Z" fill="white"/>
</mask>
<g mask="url(#mask41_22_795)">
<path d="M161.497 125.878L42.9783 37.1472L-48.7989 159.736L69.7199 248.466L161.497 125.878Z" fill="white"/>
</g>
</g>
<mask id="mask42_22_795" style="mask-type:luminance" maskUnits="userSpaceOnUse" x="76" y="113" width="11" height="18">
<path d="M76.6987 113.398H86.7563V130.979H76.6987V113.398Z" fill="white"/>
</mask>
<g mask="url(#mask42_22_795)">
<mask id="mask43_22_795" style="mask-type:luminance" maskUnits="userSpaceOnUse" x="76" y="113" width="11" height="18">
<path fill-rule="evenodd" clip-rule="evenodd" d="M86.4975 115.62C83.2285 128.299 73.2207 138.188 78.0585 123.785C80.1344 117.606 85.1272 113.486 86.1604 113.417C87.1938 113.348 86.4975 115.62 86.4975 115.62Z" fill="white"/>
</mask>
<g mask="url(#mask43_22_795)">
<path d="M99.1108 122.27L78.2396 106.645L61.304 129.266L82.1749 144.891L99.1108 122.27Z" fill="white"/>
</g>
</g>
</svg>
