<svg width="25" height="25" viewBox="0 0 25 25" fill="none" xmlns="http://www.w3.org/2000/svg">
<path d="M5.35815 24.9375C4.70503 24.9375 4.14611 24.7051 3.6814 24.2404C3.2167 23.7757 2.98395 23.2164 2.98315 22.5625V10.6875C2.98315 10.0344 3.2159 9.47546 3.6814 9.01075C4.1469 8.54604 4.70582 8.31329 5.35815 8.3125H6.54565V5.9375C6.54565 4.29479 7.12476 2.89473 8.28297 1.73731C9.44117 0.579897 10.8412 0.000792477 12.4832 8.1058e-07C14.1251 -0.000790856 15.5255 0.578313 16.6845 1.73731C17.8435 2.89631 18.4222 4.29638 18.4207 5.9375V8.3125H19.6082C20.2613 8.3125 20.8206 8.54525 21.2861 9.01075C21.7516 9.47625 21.9839 10.0352 21.9832 10.6875V22.5625C21.9832 23.2156 21.7508 23.7749 21.2861 24.2404C20.8214 24.7059 20.2621 24.9383 19.6082 24.9375H5.35815ZM12.4832 19C13.1363 19 13.6956 18.7676 14.1611 18.3029C14.6266 17.8382 14.8589 17.2789 14.8582 16.625C14.8574 15.9711 14.625 15.4122 14.1611 14.9483C13.6972 14.4843 13.1379 14.2516 12.4832 14.25C11.8284 14.2484 11.2695 14.4812 10.8064 14.9483C10.3433 15.4153 10.1105 15.9743 10.1082 16.625C10.1058 17.2758 10.3385 17.8351 10.8064 18.3029C11.2743 18.7708 11.8332 19.0032 12.4832 19ZM8.92065 8.3125H16.0457V5.9375C16.0457 4.94792 15.6993 4.10677 15.0066 3.41406C14.3139 2.72136 13.4727 2.375 12.4832 2.375C11.4936 2.375 10.6524 2.72136 9.95972 3.41406C9.26701 4.10677 8.92065 4.94792 8.92065 5.9375V8.3125Z" fill="black"/>
</svg>
