<svg width="80" height="92" viewBox="0 0 80 92" fill="none" xmlns="http://www.w3.org/2000/svg">
<mask id="mask0_31_202" style="mask-type:luminance" maskUnits="userSpaceOnUse" x="20" y="29" width="50" height="63">
<path d="M20.9082 29.5253H69.7247V91.9139H20.9082V29.5253Z" fill="white"/>
</mask>
<g mask="url(#mask0_31_202)">
<mask id="mask1_31_202" style="mask-type:luminance" maskUnits="userSpaceOnUse" x="20" y="29" width="50" height="63">
<path fill-rule="evenodd" clip-rule="evenodd" d="M20.9394 91.902C25.3368 81.118 94.5713 65.7844 60.1537 29.5439C86.2908 66.3725 20.2736 68.7479 20.9394 91.902Z" fill="white"/>
</mask>
<g mask="url(#mask1_31_202)">
<path d="M124.488 51.9415L46.9597 -6.10114L-9.64313 69.5043L67.8853 127.547L124.488 51.9415Z" fill="#EFF0EB"/>
</g>
</g>
<mask id="mask2_31_202" style="mask-type:luminance" maskUnits="userSpaceOnUse" x="38" y="55" width="34" height="32">
<path d="M38.3012 55.4161H71.2225V86.2283H38.3012V55.4161Z" fill="white"/>
</mask>
<g mask="url(#mask2_31_202)">
<mask id="mask3_31_202" style="mask-type:luminance" maskUnits="userSpaceOnUse" x="38" y="55" width="34" height="32">
<path fill-rule="evenodd" clip-rule="evenodd" d="M38.31 86.0382C38.31 86.0382 67.7265 81.2372 69.8999 55.4411C69.8999 55.4411 77.079 69.7823 57.6746 83.3986C57.6746 83.3986 42.6626 87.0213 38.31 86.0382Z" fill="white"/>
</mask>
<g mask="url(#mask3_31_202)">
<path d="M92.2298 66.784L52.235 36.8413L23.1593 75.6784L63.1541 105.621L92.2298 66.784Z" fill="#EFF0EB"/>
</g>
</g>
<mask id="mask4_31_202" style="mask-type:luminance" maskUnits="userSpaceOnUse" x="11" y="20" width="69" height="67">
<path d="M11.738 20.5383H79.6286V86.8702H11.738V20.5383Z" fill="white"/>
</mask>
<g mask="url(#mask4_31_202)">
<mask id="mask5_31_202" style="mask-type:luminance" maskUnits="userSpaceOnUse" x="11" y="20" width="69" height="67">
<path fill-rule="evenodd" clip-rule="evenodd" d="M23.5184 74.4008C25.0991 76.0334 26.8713 77.5034 28.8188 78.7707C28.2992 79.9362 28.0687 80.9832 28.0045 81.8853C25.7871 80.536 23.7642 78.9522 21.9542 77.1806C22.4113 76.2746 22.9455 75.2958 23.5184 74.4008ZM55.8709 20.5552C56.212 20.663 56.5532 20.7746 56.8934 20.8938C74.5779 27.0902 83.8907 46.4497 77.6943 64.1337C71.9815 80.4391 55.0779 89.6278 38.6151 86.1048C40.5192 86.378 45.3923 84.8898 49.1733 83.5818C60.5544 82.275 70.7558 74.6557 74.7983 63.1188C80.4341 47.0341 71.9634 29.4259 55.8788 23.7901C55.2133 23.5569 54.5457 23.3506 53.8766 23.165C54.4614 22.2923 55.1422 21.3686 55.8709 20.5552ZM14.8067 52.772C14.7871 57.0612 15.6696 61.2606 17.3318 65.1164C16.5735 65.7638 15.7445 66.4822 14.9115 67.2222C12.9573 63.0225 11.8571 58.423 11.746 53.7052C12.9062 53.5203 13.9941 53.1274 14.8067 52.772ZM13.6537 41.6945C15.4104 36.6802 18.2269 32.3396 21.762 28.8341C22.7166 29.2088 23.8298 29.5964 25.0633 29.9401C21.3129 33.2982 18.3323 37.6226 16.55 42.7093C16.4491 42.997 16.3533 43.285 16.2616 43.5735L13.4366 42.3358C13.5069 42.1219 13.5787 41.9079 13.6537 41.6945Z" fill="white"/>
</mask>
<g mask="url(#mask5_31_202)">
<path d="M117.029 45.3644L37.6587 -14.057L-21.3922 64.8184L57.9779 124.24L117.029 45.3644Z" fill="#EFF0EB"/>
</g>
</g>
<mask id="mask6_31_202" style="mask-type:luminance" maskUnits="userSpaceOnUse" x="20" y="29" width="50" height="63">
<path d="M20.9388 29.5253H69.7247V91.9139H20.9388V29.5253Z" fill="white"/>
</mask>
<g mask="url(#mask6_31_202)">
<mask id="mask7_31_202" style="mask-type:luminance" maskUnits="userSpaceOnUse" x="20" y="29" width="50" height="63">
<path fill-rule="evenodd" clip-rule="evenodd" d="M20.9394 91.902C25.3368 81.118 94.5713 65.7844 60.1537 29.5439C60.1537 29.5439 76.7073 47.8845 60.9998 61.5702C45.293 75.2561 21.7804 82.7326 20.9394 91.902Z" fill="white"/>
</mask>
<g mask="url(#mask7_31_202)">
<path d="M124.488 51.9415L47.3864 -5.78174L-8.97733 69.5043L68.1245 127.228L124.488 51.9415Z" fill="#EFF0EB"/>
</g>
</g>
<mask id="mask8_31_202" style="mask-type:luminance" maskUnits="userSpaceOnUse" x="12" y="31" width="49" height="49">
<path d="M12.655 31.8178H60.1571V79.5951H12.655V31.8178Z" fill="white"/>
</mask>
<g mask="url(#mask8_31_202)">
<mask id="mask9_31_202" style="mask-type:luminance" maskUnits="userSpaceOnUse" x="12" y="31" width="49" height="49">
<path fill-rule="evenodd" clip-rule="evenodd" d="M12.6636 31.8499L12.6776 31.8527L12.6697 31.8472L12.6636 31.8499ZM16.8657 79.5918C17.1041 79.291 22.9046 70.0629 29.9771 65.9075C39.6807 60.206 47.6644 62.6514 53.5284 50.451C55.4778 47.4526 57.7428 43.4858 60.1359 40.8533C57.9929 40.0405 56.5311 39.2045 54.6369 38.3826C53.2892 37.7977 51.2738 37.5447 48.029 38.1949C48.029 38.1949 46.8204 41.0657 48.829 43.7796C49.0567 44.0339 49.2768 44.2953 49.4825 44.5634L49.4886 44.57C49.5529 44.6388 49.5966 44.7015 49.6311 44.7617C55.8073 54.1152 34.3852 59.277 30.0354 60.3497C26.5058 61.22 25.4354 63.1723 23.5567 65.6186C19.0595 71.4751 17.0348 79.7268 16.8657 79.5918Z" fill="white"/>
</mask>
<g mask="url(#mask9_31_202)">
<path d="M83.1067 49.0445L29.7146 9.07176L-10.3071 62.5295L43.0849 102.502L83.1067 49.0445Z" fill="#EFF0EB"/>
</g>
</g>
<mask id="mask10_31_202" style="mask-type:luminance" maskUnits="userSpaceOnUse" x="32" y="24" width="14" height="33">
<path d="M32.2496 24.0062H45.3937V56.4996H32.2496V24.0062Z" fill="white"/>
</mask>
<g mask="url(#mask10_31_202)">
<mask id="mask11_31_202" style="mask-type:luminance" maskUnits="userSpaceOnUse" x="32" y="24" width="14" height="33">
<path fill-rule="evenodd" clip-rule="evenodd" d="M39.5139 46.0715C39.5139 46.0715 38.8406 45.5659 38.2175 44.964C37.3223 44.0984 36.4453 42.6862 37.0998 39.3649C38.2093 33.7344 44.1733 26.4975 45.268 24.5026C46.3624 22.508 38.5682 27.0119 35.748 35.3529C32.5341 44.8579 38.3167 47.2664 32.2596 56.492C32.2596 56.492 38.5288 53.3668 38.7268 49.6216C38.9253 45.8764 39.7114 46.1525 39.5139 46.0715Z" fill="white"/>
</mask>
<g mask="url(#mask11_31_202)">
<path d="M62.6664 34.7143L37.325 15.7422L15.9556 44.2857L41.297 63.2579L62.6664 34.7143Z" fill="#EFF0EB"/>
</g>
</g>
<mask id="mask12_31_202" style="mask-type:luminance" maskUnits="userSpaceOnUse" x="47" y="8" width="7" height="14">
<path d="M47.3798 8.76979H53.5239V21.5777H47.3798V8.76979Z" fill="white"/>
</mask>
<g mask="url(#mask12_31_202)">
<mask id="mask13_31_202" style="mask-type:luminance" maskUnits="userSpaceOnUse" x="47" y="8" width="7" height="14">
<path fill-rule="evenodd" clip-rule="evenodd" d="M52.4899 9.14307C56.25 6.19723 48.5158 21.7446 47.7369 21.5636C46.1991 21.2063 50.1261 10.9952 52.4899 9.14307Z" fill="white"/>
</mask>
<g mask="url(#mask13_31_202)">
<path d="M63.7089 11.7814L49.8091 1.37517L38.74 16.1603L52.6398 26.5666L63.7089 11.7814Z" fill="#EFF0EB"/>
</g>
</g>
<mask id="mask14_31_202" style="mask-type:luminance" maskUnits="userSpaceOnUse" x="43" y="0" width="4" height="22">
<path d="M43.2226 0.913895H46.7379V21.975H43.2226V0.913895Z" fill="white"/>
</mask>
<g mask="url(#mask14_31_202)">
<mask id="mask15_31_202" style="mask-type:luminance" maskUnits="userSpaceOnUse" x="43" y="0" width="4" height="22">
<path fill-rule="evenodd" clip-rule="evenodd" d="M45.8428 21.8198C45.8428 21.8198 47.6528 2.31057 46.1173 1.06434C44.5819 -0.181647 42.709 8.0407 43.3956 13.3937C44.0828 18.7468 44.8601 22.7539 45.8428 21.8198Z" fill="white"/>
</mask>
<g mask="url(#mask15_31_202)">
<path d="M58.6563 8.05622L44.4847 -2.55339L31.7055 14.5159L45.8771 25.1257L58.6563 8.05622Z" fill="#EFF0EB"/>
</g>
</g>
<mask id="mask16_31_202" style="mask-type:luminance" maskUnits="userSpaceOnUse" x="36" y="2" width="6" height="21">
<path d="M36.62 2.56454H41.7248V22.9532H36.62V2.56454Z" fill="white"/>
</mask>
<g mask="url(#mask16_31_202)">
<mask id="mask17_31_202" style="mask-type:luminance" maskUnits="userSpaceOnUse" x="36" y="2" width="6" height="21">
<path fill-rule="evenodd" clip-rule="evenodd" d="M41.6991 22.9177C41.6991 22.9177 39.648 4.16505 38.2389 2.82808C36.8297 1.49098 35.8041 5.52161 37.6395 12.6913C39.4744 19.8613 40.8316 23.3057 41.6991 22.9177Z" fill="white"/>
</mask>
<g mask="url(#mask17_31_202)">
<path d="M52.1648 9.32634L37.9215 -1.33713L25.3384 15.4703L39.5818 26.1338L52.1648 9.32634Z" fill="#EFF0EB"/>
</g>
</g>
<mask id="mask18_31_202" style="mask-type:luminance" maskUnits="userSpaceOnUse" x="23" y="47" width="8" height="10">
<path d="M23.0786 47.6519H30.0174V56.0274H23.0786V47.6519Z" fill="white"/>
</mask>
<g mask="url(#mask18_31_202)">
<mask id="mask19_31_202" style="mask-type:luminance" maskUnits="userSpaceOnUse" x="23" y="47" width="7" height="10">
<path fill-rule="evenodd" clip-rule="evenodd" d="M29.9159 48.056C29.9159 48.056 26.4394 56.732 23.5982 55.952C20.757 55.1712 30.9842 45.6384 29.9159 48.056Z" fill="white"/>
</mask>
<g mask="url(#mask19_31_202)">
<path d="M36.3066 49.623L24.4303 40.7318L15.4347 52.7475L27.3109 61.6386L36.3066 49.623Z" fill="#EFF0EB"/>
</g>
</g>
<mask id="mask20_31_202" style="mask-type:luminance" maskUnits="userSpaceOnUse" x="18" y="47" width="9" height="7">
<path d="M18.4017 47.927H26.5327V53.3375H18.4017V47.927Z" fill="white"/>
</mask>
<g mask="url(#mask20_31_202)">
<mask id="mask21_31_202" style="mask-type:luminance" maskUnits="userSpaceOnUse" x="18" y="47" width="9" height="7">
<path fill-rule="evenodd" clip-rule="evenodd" d="M26.5219 48.0309C26.2866 48.4188 21.0816 54.1781 18.8147 53.196C16.5478 52.2135 24.8873 47.2585 26.5219 48.0309Z" fill="white"/>
</mask>
<g mask="url(#mask21_31_202)">
<path d="M29.8418 49.7439L20.1303 42.4733L13.228 51.6927L22.9395 58.9634L29.8418 49.7439Z" fill="#EFF0EB"/>
</g>
</g>
<mask id="mask22_31_202" style="mask-type:luminance" maskUnits="userSpaceOnUse" x="12" y="47" width="10" height="5">
<path d="M12.6856 47.8047H21.6419V51.6868H12.6856V47.8047Z" fill="white"/>
</mask>
<g mask="url(#mask22_31_202)">
<mask id="mask23_31_202" style="mask-type:luminance" maskUnits="userSpaceOnUse" x="12" y="47" width="10" height="5">
<path fill-rule="evenodd" clip-rule="evenodd" d="M21.5786 48.1135C21.5786 48.1135 13.8961 53.1015 12.7733 51.2585C11.6508 49.4156 22.3434 46.9589 21.5786 48.1135Z" fill="white"/>
</mask>
<g mask="url(#mask23_31_202)">
<path d="M25.2904 49.1652L15.4913 41.8291L8.7039 50.8952L18.5029 58.2314L25.2904 49.1652Z" fill="#EFF0EB"/>
</g>
</g>
<mask id="mask24_31_202" style="mask-type:luminance" maskUnits="userSpaceOnUse" x="8" y="46" width="11" height="3">
<path d="M8.37553 46.3375H18.4323V48.9052H8.37553V46.3375Z" fill="white"/>
</mask>
<g mask="url(#mask24_31_202)">
<mask id="mask25_31_202" style="mask-type:luminance" maskUnits="userSpaceOnUse" x="8" y="46" width="11" height="3">
<path fill-rule="evenodd" clip-rule="evenodd" d="M18.4105 47.1242C18.4105 47.1242 13.9296 49.9118 10.0999 48.4748C6.27019 47.0374 8.72658 45.3043 18.4105 47.1242Z" fill="white"/>
</mask>
<g mask="url(#mask25_31_202)">
<path d="M20.6211 46.9592L10.6307 39.4798L4.05977 48.2569L14.05 55.7362L20.6211 46.9592Z" fill="#EFF0EB"/>
</g>
</g>
<mask id="mask26_31_202" style="mask-type:luminance" maskUnits="userSpaceOnUse" x="0" y="38" width="15" height="8">
<path d="M0 38.5427H14.9476V45.2065H0V38.5427Z" fill="white"/>
</mask>
<g mask="url(#mask26_31_202)">
<mask id="mask27_31_202" style="mask-type:luminance" maskUnits="userSpaceOnUse" x="0" y="38" width="15" height="8">
<path fill-rule="evenodd" clip-rule="evenodd" d="M14.9176 44.8531C14.9176 44.8531 5.31744 41.4304 2.02999 39.1611C-1.25746 36.8921 -0.4707 41.5411 4.20602 43.3452C8.88263 45.1496 14.4554 45.5696 14.9176 44.8531Z" fill="white"/>
</mask>
<g mask="url(#mask27_31_202)">
<path d="M19.0807 40.0089L4.5523 29.1319L-5.42062 42.4529L9.10783 53.3297L19.0807 40.0089Z" fill="#EFF0EB"/>
</g>
</g>
<mask id="mask28_31_202" style="mask-type:luminance" maskUnits="userSpaceOnUse" x="26" y="41" width="9" height="5">
<path d="M26.8078 41.3549H34.2663V45.8484H26.8078V41.3549Z" fill="white"/>
</mask>
<g mask="url(#mask28_31_202)">
<mask id="mask29_31_202" style="mask-type:luminance" maskUnits="userSpaceOnUse" x="26" y="41" width="9" height="5">
<path fill-rule="evenodd" clip-rule="evenodd" d="M33.7427 42.3927C31.3857 45.131 23.2461 47.9936 28.6137 43.4457C30.8678 41.5356 33.7406 41.1997 34.145 41.4378C34.5494 41.6759 33.7427 42.3927 33.7427 42.3927Z" fill="white"/>
</mask>
<g mask="url(#mask29_31_202)">
<path d="M37.8088 43.6399L27.3059 35.7768L19.9866 45.5534L30.4895 53.4165L37.8088 43.6399Z" fill="#EFF0EB"/>
</g>
</g>
<mask id="mask30_31_202" style="mask-type:luminance" maskUnits="userSpaceOnUse" x="29" y="8" width="11" height="17">
<path d="M29.9257 8.0056H39.096V24.5122H29.9257V8.0056Z" fill="white"/>
</mask>
<g mask="url(#mask30_31_202)">
<mask id="mask31_31_202" style="mask-type:luminance" maskUnits="userSpaceOnUse" x="29" y="8" width="11" height="17">
<path fill-rule="evenodd" clip-rule="evenodd" d="M39.0905 24.285C39.0905 24.285 33.1148 7.03567 30.8008 8.06948C28.4866 9.10328 31.264 13.6306 34.2528 18.4288C37.2421 23.2273 38.4376 25.1468 39.0905 24.285Z" fill="white"/>
</mask>
<g mask="url(#mask31_31_202)">
<path d="M47.7794 13.5407L32.2953 1.9483L19.7977 18.6416L35.2818 30.234L47.7794 13.5407Z" fill="#EFF0EB"/>
</g>
</g>
<mask id="mask32_31_202" style="mask-type:luminance" maskUnits="userSpaceOnUse" x="24" y="16" width="14" height="11">
<path d="M24.4541 16.1977H37.3842V26.1322H24.4541V16.1977Z" fill="white"/>
</mask>
<g mask="url(#mask32_31_202)">
<mask id="mask33_31_202" style="mask-type:luminance" maskUnits="userSpaceOnUse" x="24" y="16" width="14" height="11">
<path fill-rule="evenodd" clip-rule="evenodd" d="M37.372 25.6092C36.9774 25.4472 26.3698 15.3354 25.2446 16.2802C24.1196 17.2251 23.8718 18.3916 26.8925 20.4137C29.9132 22.4359 37.6305 27.7896 37.372 25.6092Z" fill="white"/>
</mask>
<g mask="url(#mask33_31_202)">
<path d="M43.6055 19.8087L28.8137 8.73445L17.8967 23.3163L32.6887 34.3905L43.6055 19.8087Z" fill="#EFF0EB"/>
</g>
</g>
<mask id="mask34_31_202" style="mask-type:luminance" maskUnits="userSpaceOnUse" x="23" y="24" width="14" height="6">
<path d="M23.048 24.3593H36.1309V29.617H23.048V24.3593Z" fill="white"/>
</mask>
<g mask="url(#mask34_31_202)">
<mask id="mask35_31_202" style="mask-type:luminance" maskUnits="userSpaceOnUse" x="23" y="24" width="14" height="6">
<path fill-rule="evenodd" clip-rule="evenodd" d="M34.5839 28.0384C34.1437 27.807 23.5416 22.9211 23.132 24.7986C22.7227 26.6758 24.0714 27.0899 27.8945 28.4695C31.7176 29.8486 36.4115 29.8673 36.1034 29.1389C35.7953 28.4101 34.5876 28.0862 34.5839 28.0384Z" fill="white"/>
</mask>
<g mask="url(#mask35_31_202)">
<path d="M39.744 25.416L27.6394 16.3538L19.3902 27.3724L31.4948 36.4346L39.744 25.416Z" fill="#EFF0EB"/>
</g>
</g>
<mask id="mask36_31_202" style="mask-type:luminance" maskUnits="userSpaceOnUse" x="23" y="32" width="12" height="3">
<path d="M23.7205 32.1541H34.0523V34.5689H23.7205V32.1541Z" fill="white"/>
</mask>
<g mask="url(#mask36_31_202)">
<mask id="mask37_31_202" style="mask-type:luminance" maskUnits="userSpaceOnUse" x="23" y="32" width="12" height="3">
<path fill-rule="evenodd" clip-rule="evenodd" d="M32.5215 32.6496C32.0435 32.5671 23.9158 31.2964 23.7434 33.1998C23.571 35.1035 31.4437 34.542 33.0267 34.148C34.6098 33.754 34.2543 32.6777 32.5215 32.6496Z" fill="white"/>
</mask>
<g mask="url(#mask37_31_202)">
<path d="M36.4363 32.6638L27.5359 26.0003L21.7444 33.7361L30.645 40.3996L36.4363 32.6638Z" fill="#EFF0EB"/>
</g>
</g>
<mask id="mask38_31_202" style="mask-type:luminance" maskUnits="userSpaceOnUse" x="24" y="36" width="10" height="5">
<path d="M24.1484 36.8309H33.3187V40.1628H24.1484V36.8309Z" fill="white"/>
</mask>
<g mask="url(#mask38_31_202)">
<mask id="mask39_31_202" style="mask-type:luminance" maskUnits="userSpaceOnUse" x="24" y="36" width="10" height="5">
<path fill-rule="evenodd" clip-rule="evenodd" d="M33.1234 36.8368C32.9519 36.8404 23.8394 37.3543 24.1625 39.3864C24.4856 41.4188 34.727 39.0159 33.1234 36.8368Z" fill="white"/>
</mask>
<g mask="url(#mask39_31_202)">
<path d="M36.9252 38.4825L27.7499 31.6133L21.641 39.7731L30.8163 46.6422L36.9252 38.4825Z" fill="#EFF0EB"/>
</g>
</g>
<mask id="mask40_31_202" style="mask-type:luminance" maskUnits="userSpaceOnUse" x="3" y="34" width="38" height="48">
<path d="M3.51527 34.1772H40.0436V81.7099H3.51527V34.1772Z" fill="white"/>
</mask>
<g mask="url(#mask40_31_202)">
<mask id="mask41_31_202" style="mask-type:luminance" maskUnits="userSpaceOnUse" x="3" y="34" width="38" height="48">
<path fill-rule="evenodd" clip-rule="evenodd" d="M38.7252 34.213C38.7252 34.213 39.9501 49.3302 29.6224 58.3278C19.2946 67.3254 3.53366 81.7029 3.53366 81.7029C16.4897 72.6558 34.5175 65.2416 39.22 48.5242C41.3362 41.0008 38.6014 33.84 38.7252 34.213Z" fill="white"/>
</mask>
<g mask="url(#mask41_31_202)">
<path d="M64.2989 51.0313L17.1115 15.7038L-19.4289 64.5117L27.7585 99.8391L64.2989 51.0313Z" fill="#EFF0EB"/>
</g>
</g>
<mask id="mask42_31_202" style="mask-type:luminance" maskUnits="userSpaceOnUse" x="30" y="46" width="5" height="8">
<path d="M30.537 46.0624H34.5414V53.0624H30.537V46.0624Z" fill="white"/>
</mask>
<g mask="url(#mask42_31_202)">
<mask id="mask43_31_202" style="mask-type:luminance" maskUnits="userSpaceOnUse" x="30" y="46" width="5" height="8">
<path fill-rule="evenodd" clip-rule="evenodd" d="M34.4384 46.9473C33.1368 51.9952 29.1523 55.9324 31.0784 50.1982C31.905 47.7377 33.8928 46.0975 34.3042 46.07C34.7156 46.0428 34.4384 46.9473 34.4384 46.9473Z" fill="white"/>
</mask>
<g mask="url(#mask43_31_202)">
<path d="M39.4603 49.595L31.1505 43.3737L24.4078 52.3802L32.7174 58.6014L39.4603 49.595Z" fill="#EFF0EB"/>
</g>
</g>
</svg>
